<svg id="visual" viewBox="0 0 1920 1080" width="1920" height="1080" xmlns="http://www.w3.org/2000/svg" xmlns:xlink="http://www.w3.org/1999/xlink" version="1.1"><rect x="0" y="0" width="1920" height="1080" fill="#FFFFFF"></rect><path d="M0 231L80 224C160 217 320 203 480 178.3C640 153.7 800 118.3 960 96.3C1120 74.3 1280 65.7 1440 86C1600 106.3 1760 155.7 1840 180.3L1920 205L1920 0L1840 0C1760 0 1600 0 1440 0C1280 0 1120 0 960 0C800 0 640 0 480 0C320 0 160 0 80 0L0 0Z" fill="#F6F9FC" stroke-linecap="round" stroke-linejoin="miter"></path></svg>